<?xml version="1.0" encoding="utf-8"?>
<!-- Generator: Adobe Illustrator 16.0.3, SVG Export Plug-In . SVG Version: 6.00 Build 0)  -->
<!DOCTYPE svg PUBLIC "-//W3C//DTD SVG 1.1//EN" "http://www.w3.org/Graphics/SVG/1.1/DTD/svg11.dtd">
<svg version="1.1" id="Layer_1" xmlns="http://www.w3.org/2000/svg" xmlns:xlink="http://www.w3.org/1999/xlink" x="0px" y="0px"
	 width="500px" height="500px" viewBox="0 0 500 500" enable-background="new 0 0 500 500" xml:space="preserve">
<title>Donutgraph</title>
<path fill="#00DC96" d="M250.049,71.327L250.049,71.327V-0.13C118.892-0.233,10.074,101.287,1.088,232.136l70.774,4.84
	C78.672,143.596,156.422,71.317,250.049,71.327z"/>
<path fill="#FFA400" d="M71.408,249.967c0-4.352,0.195-8.64,0.52-12.992l-70.839-4.84c-6.227,76.803,24.161,152.036,81.98,202.969
	l47.194-52.423C92.694,348.803,71.298,300.555,71.408,249.967z"/>
<path fill="#8820E2" d="M250.049,428.608c-44.261,0.063-86.957-16.368-119.754-46.09l-47.227,52.585
	c97.441,87.696,241.198,86.527,337.145-2.955l-48.169-51.644C338.984,411.484,295.354,428.688,250.049,428.608z"/>
<path fill="#E53030" d="M372.044,380.408l48.169,51.644c37.723-34.704,63.573-80.395,73.893-130.603l-69.247-14.715
	C417.31,322.649,398.867,355.361,372.044,380.408z"/>
<path fill="#324BED" d="M250.049-0.13v71.457c98.66-0.006,178.646,79.969,178.651,178.63c0.001,12.336-1.276,24.641-3.812,36.713
	l69.248,14.714c3.854-17.048,5.686-34.491,5.456-51.968C499.594,111.595,387.869-0.13,250.049-0.13z"/>
</svg>
