<?xml version="1.0" encoding="utf-8"?>
<!-- Generator: Adobe Illustrator 16.0.3, SVG Export Plug-In . SVG Version: 6.00 Build 0)  -->
<!DOCTYPE svg PUBLIC "-//W3C//DTD SVG 1.1//EN" "http://www.w3.org/Graphics/SVG/1.1/DTD/svg11.dtd">
<svg version="1.1" id="Capa_1" xmlns="http://www.w3.org/2000/svg" xmlns:xlink="http://www.w3.org/1999/xlink" x="0px" y="0px"
	 width="520px" height="500px" viewBox="0 0 520 500" style="enable-background:new 0 0 520 500;" xml:space="preserve">
<style type="text/css">
<![CDATA[
	.st0{fill:#E53030;}
	.st1{fill:#179C7B;}
	.st2{fill:none;stroke:#179C7B;stroke-width:2;stroke-miterlimit:10;}
	.st3{fill:#871E8B;}
	.st4{enable-background:new    ;}
	.st5{fill:#F9A40E;}
	.st6{fill:#2B479D;}
	.st7{fill:none;stroke:#E53030;stroke-width:2;stroke-miterlimit:10;}
	.st8{fill:none;}
	.st9{fill:none;stroke:#000000;stroke-width:2;stroke-miterlimit:10;}
]]>
</style>
<g class="st4">
	<path d="M0.7,392.6c0-1.8,1.3-3.3,3.3-3.3c2.1,0,3.4,1.5,3.4,3.3v3.5c0,1.8-1.3,3.3-3.4,3.3c-2,0-3.3-1.5-3.3-3.3V392.6z
		 M6.1,392.6c0-1.2-0.8-2.2-2.1-2.2c-1.2,0-2.1,1-2.1,2.2v3.5c0,1.2,0.8,2.2,2.1,2.2c1.3,0,2.1-1,2.1-2.2V392.6z"/>
</g>
<g class="st4">
	<path d="M107,389.5h5.8v1.1h-4.6v3.3c0.4-0.8,1.4-1.1,2.2-1.1c2,0,3.2,1.5,3.2,3.3c0,1.8-1.3,3.3-3.4,3.3c-2,0-3.3-1.5-3.3-3.3h1.3
		c0,1.2,0.8,2.2,2.1,2.2c1.3,0,2.1-1,2.1-2.2c0-1.2-0.8-2.2-2.1-2.2c-0.8,0-1.5,0.4-1.8,1.2H107V389.5z"/>
</g>
<g class="st4">
	<path d="M224.3,391.1c1.8,0,2.1-0.4,2.1-1.6h1.2v9.8h-1.3v-7.2h-2V391.1z"/>
	<path d="M229.4,392.6c0-1.8,1.3-3.3,3.3-3.3c2.1,0,3.4,1.5,3.4,3.3v3.5c0,1.8-1.3,3.3-3.4,3.3c-2,0-3.3-1.5-3.3-3.3V392.6z
		 M234.8,392.6c0-1.2-0.8-2.2-2.1-2.2c-1.2,0-2.1,1-2.1,2.2v3.5c0,1.2,0.8,2.2,2.1,2.2c1.3,0,2.1-1,2.1-2.2V392.6z"/>
</g>
<g class="st4">
	<path d="M359.7,391.1c1.8,0,2.1-0.4,2.1-1.6h1.2v9.8h-1.3v-7.2h-2V391.1L359.7,391.1z"/>
	<path d="M365.2,389.5h5.8v1.1h-4.6v3.3c0.4-0.8,1.4-1.1,2.2-1.1c2,0,3.2,1.5,3.2,3.3c0,1.8-1.3,3.3-3.4,3.3c-2,0-3.3-1.5-3.3-3.3
		h1.3c0,1.2,0.8,2.2,2.1,2.2c1.3,0,2.1-1,2.1-2.2c0-1.2-0.8-2.2-2.1-2.2c-0.8,0-1.5,0.4-1.8,1.2h-1.3L365.2,389.5L365.2,389.5z"/>
</g>
<g class="st4">
	<path d="M485.4,394.4c1-0.5,2.1-1,2.1-2.3c0-1-0.7-1.6-1.7-1.6c-1.1,0-1.9,0.7-1.9,1.9h-1.3c0-1.9,1.4-3.1,3.1-3.1c1.8,0,3,1,3,2.8
		c0,1.8-1.8,2.7-2.6,3.2c-1.6,0.9-2,1.5-2,2.8h4.7v1.1h-6.1C482.7,396.2,483.7,395.3,485.4,394.4z"/>
	<path d="M490.1,392.6c0-1.8,1.3-3.3,3.3-3.3c2.1,0,3.4,1.5,3.4,3.3v3.5c0,1.8-1.3,3.3-3.4,3.3c-2,0-3.3-1.5-3.3-3.3V392.6z
		 M495.5,392.6c0-1.2-0.8-2.2-2.1-2.2c-1.2,0-2.1,1-2.1,2.2v3.5c0,1.2,0.8,2.2,2.1,2.2c1.3,0,2.1-1,2.1-2.2V392.6z"/>
</g>
<line class="st9" x1="4.3" y1="384.1" x2="490.6" y2="384.1"/>
<line class="st8" x1="4.3" y1="384.1" x2="4.3" y2="377.6"/>
<line class="st9" x1="110.4" y1="384.1" x2="110.4" y2="377.6"/>
<line class="st9" x1="231.3" y1="384.1" x2="231.3" y2="377.6"/>
<line class="st9" x1="366.8" y1="384.1" x2="366.8" y2="377.6"/>
<line class="st9" x1="490.6" y1="384.1" x2="490.6" y2="377.6"/>
<line class="st9" x1="4.3" y1="384.8" x2="4.3" y2="95.8"/>
<rect x="5.1" y="122.9" class="st3" width="327.2" height="21.8"/>
<line class="st2" x1="232.3" y1="145.1" x2="232.3" y2="111.6"/>
<rect x="5.1" y="283.1" class="st6" width="327.2" height="21.7"/>
<line class="st2" x1="232.3" y1="304.8" x2="232.3" y2="271.3"/>
<rect x="5.1" y="335" class="st0" width="406.8" height="23"/>
<line class="st7" x1="492.1" y1="358.1" x2="492.1" y2="324.6"/>
<rect x="5.1" y="228.8" class="st5" width="406.8" height="22.7"/>
<line class="st2" x1="372.1" y1="251.6" x2="372.1" y2="218.1"/>
<rect x="5.1" y="175.2" class="st1" width="454.5" height="23.2"/>
<line class="st7" x1="489.6" y1="198.3" x2="489.6" y2="164.8"/>
<g class="st4">
	<path class="st0" d="M499.3,313.1c1.3-0.6,2.6-1.3,2.6-3c0-1.3-0.9-2-2.2-2c-1.3,0-2.3,0.8-2.3,2.4h-1.6c0-2.4,1.8-3.9,4-3.9
		c2.2,0,3.8,1.3,3.8,3.6c0,2.3-2.3,3.4-3.3,4c-2.1,1.2-2.5,1.8-2.5,3.5h5.9v1.5h-7.7C495.8,315.4,497.2,314.2,499.3,313.1z"/>
	<path class="st0" d="M505.2,310.9c0-2.3,1.7-4.2,4.2-4.2c2.6,0,4.3,1.9,4.3,4.2v4.4c0,2.3-1.7,4.2-4.3,4.2c-2.5,0-4.2-1.9-4.2-4.2
		V310.9z M512.1,310.9c0-1.5-1-2.8-2.7-2.8c-1.6,0-2.6,1.3-2.6,2.8v4.4c0,1.5,1,2.8,2.6,2.8c1.6,0,2.7-1.3,2.7-2.8V310.9z"/>
</g>
<g class="st4">
	<path class="st0" d="M499.3,153.1c1.3-0.6,2.6-1.3,2.6-3c0-1.3-0.9-2-2.2-2c-1.3,0-2.3,0.8-2.3,2.4h-1.6c0-2.4,1.8-3.9,4-3.9
		c2.2,0,3.8,1.3,3.8,3.6c0,2.3-2.3,3.4-3.3,4c-2.1,1.2-2.5,1.8-2.5,3.5h5.9v1.4h-7.7C495.8,155.4,497.2,154.2,499.3,153.1z"/>
	<path class="st0" d="M505.2,150.9c0-2.3,1.7-4.2,4.2-4.2c2.6,0,4.3,1.9,4.3,4.2v4.4c0,2.3-1.7,4.2-4.3,4.2c-2.5,0-4.2-1.9-4.2-4.2
		V150.9z M512.1,150.9c0-1.5-1-2.8-2.7-2.8c-1.6,0-2.6,1.3-2.6,2.8v4.4c0,1.5,1,2.8,2.6,2.8c1.6,0,2.7-1.3,2.7-2.8V150.9z"/>
</g>
<g class="st4">
	<path class="st1" d="M234.4,258.9c2.2,0,2.6-0.6,2.6-2.1h1.5v12.4h-1.7v-9h-2.5L234.4,258.9L234.4,258.9z"/>
	<path class="st1" d="M240.8,260.9c0-2.3,1.7-4.2,4.2-4.2c2.6,0,4.3,1.9,4.3,4.2v4.4c0,2.3-1.7,4.2-4.3,4.2c-2.5,0-4.2-1.9-4.2-4.2
		V260.9z M247.7,260.9c0-1.5-1-2.8-2.7-2.8c-1.6,0-2.6,1.3-2.6,2.8v4.4c0,1.5,1,2.8,2.6,2.8c1.6,0,2.7-1.3,2.7-2.8V260.9z"/>
</g>
<g class="st4">
	<path class="st1" d="M234.4,98.9c2.2,0,2.6-0.6,2.6-2.1h1.5v12.4h-1.7v-9h-2.5L234.4,98.9L234.4,98.9z"/>
	<path class="st1" d="M240.8,100.9c0-2.3,1.7-4.2,4.2-4.2c2.6,0,4.3,1.9,4.3,4.2v4.4c0,2.3-1.7,4.2-4.3,4.2c-2.5,0-4.2-1.9-4.2-4.2
		V100.9z M247.7,100.9c0-1.5-1-2.8-2.7-2.8c-1.6,0-2.6,1.3-2.6,2.8v4.4c0,1.5,1,2.8,2.6,2.8c1.6,0,2.7-1.3,2.7-2.8V100.9z"/>
</g>
<g class="st4">
	<path class="st1" d="M375.8,208.9c2.2,0,2.6-0.6,2.6-2.1h1.5v12.4h-1.7v-9h-2.5V208.9L375.8,208.9z"/>
	<path class="st1" d="M382.8,206.9h7.3v1.4h-5.8v4.1c0.5-1,1.8-1.4,2.8-1.4c2.6,0,4,1.9,4,4.2c0,2.3-1.7,4.2-4.3,4.2
		c-2.5,0-4.2-1.9-4.2-4.2h1.6c0,1.5,1,2.8,2.6,2.8c1.6,0,2.6-1.3,2.6-2.8c0-1.5-1-2.7-2.6-2.7c-1,0-1.9,0.5-2.3,1.5h-1.6
		L382.8,206.9L382.8,206.9z"/>
</g>
<g class="st4">
	<path d="M18.9,109.3c0.1,1.1,0.5,1.9,2,1.9c1,0,1.4-0.4,1.6-1h1.8c-0.2,1.3-1.4,2.4-3.3,2.4c-2.5,0-3.7-1.7-3.7-3.9
		c0-2.2,1.3-3.9,3.7-3.9c1.9,0,3.5,1.5,3.5,3.4c0,0.3,0,0.6-0.1,1.1H18.9z M18.9,108h3.7c0-1.1-0.8-1.8-1.8-1.8
		C19.7,106.2,18.9,106.8,18.9,108z"/>
	<path d="M26.2,105h1.7v1c0.5-0.8,1.3-1.2,2.4-1.2c1.1,0,1.8,0.4,2.2,1c0.4,0.6,0.5,1.2,0.5,2.2v4.4h-1.7v-3.9
		c0-1.3-0.4-2.3-1.6-2.3c-1.2,0-1.8,1-1.8,2.3v3.9h-1.7L26.2,105L26.2,105z"/>
	<path d="M39.4,112.5c-0.3,0-0.8,0.1-1.3,0.1c-0.8,0-2.4-0.1-2.4-2.6v-3.5h-1.3V105h1.3v-2.3h1.7v2.3h1.7v1.5h-1.7v3.1
		c0,1.3,0.4,1.5,1.1,1.5c0.3,0,0.7,0,0.9-0.1V112.5z"/>
	<path d="M41.9,109.3c0.1,1.1,0.5,1.9,2,1.9c1,0,1.4-0.4,1.6-1h1.8c-0.2,1.3-1.4,2.4-3.3,2.4c-2.5,0-3.7-1.7-3.7-3.9
		c0-2.2,1.3-3.9,3.7-3.9c1.9,0,3.5,1.5,3.5,3.4c0,0.3,0,0.6-0.1,1.1H41.9z M41.9,108h3.7c0-1.1-0.8-1.8-1.8-1.8
		C42.8,106.2,41.9,106.8,41.9,108z"/>
	<path d="M54,106.7c-0.3-0.1-0.4-0.1-0.7-0.1c-1.5,0-2.3,0.8-2.3,2.7v3.2h-1.7V105H51v1.2c0.3-0.7,1.3-1.3,2.3-1.3
		c0.3,0,0.5,0,0.7,0.1V106.7z"/>
	<path d="M59.4,112.5c-0.3,0-0.8,0.1-1.3,0.1c-0.8,0-2.4-0.1-2.4-2.6v-3.5h-1.3V105h1.3v-2.3h1.7v2.3h1.7v1.5h-1.7v3.1
		c0,1.3,0.4,1.5,1.1,1.5c0.3,0,0.7,0,0.9-0.1V112.5z"/>
	<path d="M68,105v7.5h-1.7v-1c-0.5,0.8-1.4,1.2-2.3,1.2c-2.3,0-3.8-1.8-3.8-3.9s1.6-3.9,3.8-3.9c0.9,0,1.8,0.4,2.3,1.2v-1L68,105
		L68,105z M66.3,108.8c0-1.3-0.9-2.4-2.2-2.4c-1.3,0-2.2,1.1-2.2,2.4s0.9,2.4,2.2,2.4C65.4,111.1,66.3,110.1,66.3,108.8z"/>
	<path d="M71.2,101c0.7,0,1.3,0.6,1.3,1.3c0,0.7-0.6,1.3-1.3,1.3c-0.7,0-1.3-0.6-1.3-1.3C70,101.6,70.5,101,71.2,101z M70.4,105h1.7
		v7.5h-1.7V105z"/>
	<path d="M74.5,105h1.7v1c0.5-0.8,1.3-1.2,2.4-1.2c1.1,0,1.8,0.4,2.2,1c0.4,0.6,0.5,1.2,0.5,2.2v4.4h-1.7v-3.9
		c0-1.3-0.4-2.3-1.6-2.3c-1.2,0-1.8,1-1.8,2.3v3.9h-1.7L74.5,105L74.5,105z"/>
	<path d="M93,112.5v-4.2c0-1.2-0.4-1.9-1.4-1.9c-0.9,0-1.6,0.5-1.6,2.3v3.8h-1.7v-4.2c0-1.2-0.4-1.9-1.4-1.9c-0.9,0-1.6,0.5-1.6,2.3
		v3.8h-1.7V105h1.7v1c0.3-0.7,1.1-1.2,2.1-1.2c1.4,0,2,0.6,2.4,1.3c0.4-0.8,1.2-1.3,2.3-1.3c2.2,0,2.7,1.5,2.7,2.9v4.7H93z"/>
	<path d="M98.1,109.3c0.1,1.1,0.5,1.9,2,1.9c1,0,1.4-0.4,1.6-1h1.8c-0.2,1.3-1.4,2.4-3.3,2.4c-2.5,0-3.7-1.7-3.7-3.9
		c0-2.2,1.3-3.9,3.7-3.9c1.9,0,3.5,1.5,3.5,3.4c0,0.3,0,0.6-0.1,1.1H98.1z M98.1,108h3.7c0-1.1-0.8-1.8-1.8-1.8
		C99,106.2,98.1,106.8,98.1,108z"/>
	<path d="M105.4,105h1.7v1c0.5-0.8,1.3-1.2,2.4-1.2c1.1,0,1.8,0.4,2.2,1c0.4,0.6,0.5,1.2,0.5,2.2v4.4h-1.7v-3.9
		c0-1.3-0.4-2.3-1.6-2.3c-1.2,0-1.8,1-1.8,2.3v3.9h-1.7L105.4,105L105.4,105z"/>
	<path d="M118.7,112.5c-0.3,0-0.8,0.1-1.3,0.1c-0.8,0-2.4-0.1-2.4-2.6v-3.5h-1.3V105h1.3v-2.3h1.7v2.3h1.7v1.5h-1.7v3.1
		c0,1.3,0.4,1.5,1.1,1.5c0.3,0,0.7,0,0.9-0.1V112.5z"/>
</g>
<g class="st4">
	<path d="M19.4,212c0.5-0.8,1.4-1.2,2.3-1.2c2.3,0,3.8,1.8,3.8,3.9s-1.6,3.9-3.8,3.9c-0.9,0-1.8-0.4-2.3-1.2v4.8h-1.7V211h1.7V212z
		 M19.4,214.8c0,1.3,0.9,2.4,2.2,2.4c1.3,0,2.2-1.1,2.2-2.4s-0.9-2.4-2.2-2.4C20.3,212.4,19.4,213.5,19.4,214.8z"/>
	<path d="M26.8,214.8c0-2.1,1.6-3.9,3.9-3.9c2.4,0,4,1.8,4,3.9s-1.6,3.9-4,3.9C28.3,218.7,26.8,216.9,26.8,214.8z M32.9,214.8
		c0-1.3-0.9-2.4-2.2-2.4c-1.3,0-2.2,1.1-2.2,2.4s0.9,2.4,2.2,2.4C32.1,217.1,32.9,216.1,32.9,214.8z"/>
	<path d="M36.4,207.3h1.7v11.2h-1.7V207.3z"/>
	<path d="M41.4,207c0.7,0,1.3,0.6,1.3,1.3c0,0.7-0.6,1.3-1.3,1.3c-0.7,0-1.3-0.6-1.3-1.3C40.1,207.6,40.7,207,41.4,207z M40.5,211
		h1.7v7.5h-1.7V211z"/>
	<path d="M48.7,218.5c-0.3,0-0.8,0.1-1.3,0.1c-0.8,0-2.4-0.1-2.4-2.6v-3.5h-1.3V211H45v-2.3h1.7v2.3h1.7v1.5h-1.7v3.1
		c0,1.3,0.4,1.5,1.1,1.5c0.3,0,0.7,0,0.9-0.1V218.5z"/>
	<path d="M51.1,207c0.7,0,1.3,0.6,1.3,1.3c0,0.7-0.6,1.3-1.3,1.3c-0.7,0-1.3-0.6-1.3-1.3C49.8,207.6,50.4,207,51.1,207z M50.2,211
		H52v7.5h-1.7V211z"/>
	<path d="M59.3,213.8c-0.1-0.8-0.6-1.4-1.8-1.4c-1.3,0-2,1.1-2,2.4c0,1.3,0.6,2.4,2.1,2.4c1,0,1.4-0.4,1.7-1.2H61
		c-0.2,1.6-1.4,2.8-3.5,2.8c-2.4,0-3.7-1.9-3.7-3.9c0-2,1.3-3.9,3.7-3.9c2.4,0,3.4,1.5,3.5,2.9H59.3L59.3,213.8z"/>
	<path d="M68.3,216.4c0,1.6-1.3,2.3-3,2.3c-1.6,0-3-0.9-3-2.7h1.7c0,1,0.6,1.3,1.4,1.3c0.7,0,1.2-0.2,1.2-0.9c0-0.7-0.8-0.8-2.3-1.4
		c-1-0.4-1.8-0.8-1.8-2.1c0-1.4,1.3-2.2,2.8-2.2c1.6,0,2.8,1.1,2.8,2.5h-1.7c0-0.7-0.4-1.2-1.2-1.2c-0.6,0-1.1,0.3-1.1,0.8
		c0,0.6,0.7,0.7,2,1.2C67.3,214.7,68.3,215.1,68.3,216.4z"/>
</g>
<g class="st4">
	<path d="M21.8,272.5c-0.3,0-0.8,0.1-1.3,0.1c-0.8,0-2.4-0.1-2.4-2.6v-3.5h-1.3V265h1.3v-2.3h1.7v2.3h1.7v1.5h-1.7v3.1
		c0,1.3,0.4,1.5,1.1,1.5c0.3,0,0.7,0,0.9-0.1V272.5z"/>
	<path d="M24.3,269.3c0.1,1.1,0.5,1.9,2,1.9c1,0,1.4-0.4,1.6-1h1.8c-0.2,1.3-1.4,2.4-3.3,2.4c-2.5,0-3.7-1.7-3.7-3.9
		c0-2.2,1.3-3.9,3.7-3.9c1.9,0,3.5,1.5,3.5,3.4c0,0.3,0,0.6-0.1,1.1H24.3L24.3,269.3z M24.3,268H28c0-1.1-0.8-1.8-1.8-1.8
		C25.2,266.2,24.3,266.8,24.3,268z"/>
	<path d="M36.6,267.8c-0.1-0.8-0.6-1.4-1.8-1.4c-1.3,0-2,1.1-2,2.4c0,1.3,0.6,2.4,2.1,2.4c1,0,1.4-0.4,1.7-1.2h1.7
		c-0.2,1.6-1.4,2.8-3.5,2.8c-2.4,0-3.7-1.9-3.7-3.9c0-2,1.3-3.9,3.7-3.9c2.4,0,3.4,1.5,3.5,2.9H36.6L36.6,267.8z"/>
	<path d="M40.2,261.3h1.7v4.8c0.5-0.8,1.3-1.2,2.4-1.2c1.1,0,1.8,0.4,2.2,1c0.4,0.6,0.5,1.2,0.5,2.2v4.4h-1.7v-3.9
		c0-1.3-0.4-2.3-1.6-2.3c-1.2,0-1.8,1-1.8,2.3v3.9h-1.7L40.2,261.3L40.2,261.3z"/>
</g>
<g class="st4">
	<path d="M18.4,324.5h-1.7v-11.2h1.7v4.8c0.5-0.8,1.4-1.2,2.3-1.2c2.3,0,3.8,1.8,3.8,3.9c0,2.1-1.6,3.9-3.8,3.9
		c-0.9,0-1.8-0.4-2.3-1.2V324.5z M22.8,320.8c0-1.3-0.9-2.4-2.2-2.4c-1.3,0-2.2,1.1-2.2,2.4c0,1.3,0.9,2.4,2.2,2.4
		C21.9,323.1,22.8,322.1,22.8,320.8z"/>
	<path d="M33.1,317v7.5h-1.7v-1c-0.5,0.8-1.3,1.2-2.4,1.2c-1.1,0-1.8-0.4-2.2-1c-0.4-0.6-0.5-1.2-0.5-2.2V317H28v3.9
		c0,1.3,0.4,2.3,1.6,2.3c1.2,0,1.8-1,1.8-2.3V317L33.1,317L33.1,317z"/>
	<path d="M40.9,322.4c0,1.6-1.3,2.3-3,2.3c-1.6,0-3-0.9-3-2.7h1.7c0,1,0.6,1.3,1.4,1.3c0.7,0,1.2-0.2,1.2-0.9c0-0.7-0.8-0.8-2.3-1.4
		c-1-0.4-1.8-0.8-1.8-2.1c0-1.4,1.3-2.2,2.8-2.2c1.6,0,2.8,1.1,2.8,2.5h-1.7c0-0.7-0.4-1.2-1.2-1.2c-0.6,0-1.1,0.3-1.1,0.8
		c0,0.6,0.7,0.7,2,1.2C39.9,320.7,40.9,321.1,40.9,322.4z"/>
	<path d="M43.6,313c0.7,0,1.3,0.6,1.3,1.3c0,0.7-0.6,1.3-1.3,1.3c-0.7,0-1.3-0.6-1.3-1.3C42.3,313.6,42.9,313,43.6,313z M42.7,317
		h1.7v7.5h-1.7V317z"/>
	<path d="M46.8,317h1.7v1c0.5-0.8,1.3-1.2,2.4-1.2c1.1,0,1.8,0.4,2.2,1c0.4,0.6,0.5,1.2,0.5,2.2v4.4H52v-3.9c0-1.3-0.4-2.3-1.6-2.3
		c-1.2,0-1.8,1-1.8,2.3v3.9h-1.7L46.8,317L46.8,317z"/>
	<path d="M57.1,321.3c0.1,1.1,0.5,1.9,2,1.9c1,0,1.4-0.4,1.6-1h1.8c-0.2,1.3-1.4,2.4-3.3,2.4c-2.5,0-3.7-1.7-3.7-3.9
		c0-2.2,1.3-3.9,3.7-3.9c1.9,0,3.5,1.5,3.5,3.4c0,0.3,0,0.6-0.1,1.1H57.1L57.1,321.3z M57.1,320h3.7c0-1.1-0.8-1.8-1.8-1.8
		C57.9,318.2,57.1,318.8,57.1,320z"/>
	<path d="M69.8,322.4c0,1.6-1.3,2.3-3,2.3c-1.6,0-3-0.9-3-2.7h1.7c0,1,0.6,1.3,1.4,1.3c0.7,0,1.2-0.2,1.2-0.9c0-0.7-0.8-0.8-2.3-1.4
		c-1-0.4-1.8-0.8-1.8-2.1c0-1.4,1.3-2.2,2.8-2.2c1.6,0,2.8,1.1,2.8,2.5H68c0-0.7-0.4-1.2-1.2-1.2c-0.6,0-1.1,0.3-1.1,0.8
		c0,0.6,0.7,0.7,2,1.2C68.8,320.7,69.8,321.1,69.8,322.4z"/>
	<path d="M77.1,322.4c0,1.6-1.3,2.3-3,2.3c-1.6,0-3-0.9-3-2.7h1.7c0,1,0.6,1.3,1.4,1.3c0.7,0,1.2-0.2,1.2-0.9c0-0.7-0.8-0.8-2.3-1.4
		c-1-0.4-1.8-0.8-1.8-2.1c0-1.4,1.3-2.2,2.8-2.2c1.6,0,2.8,1.1,2.8,2.5h-1.7c0-0.7-0.4-1.2-1.2-1.2c-0.6,0-1.1,0.3-1.1,0.8
		c0,0.6,0.7,0.7,2,1.2C76.1,320.7,77.1,321.1,77.1,322.4z"/>
</g>
<g class="st4">
	<path d="M21.5,158.9l-2,5.6h-1.2l-2.9-7.5h1.9l1.6,4.7l1.7-4.7h1.7l1.7,4.7l1.6-4.7h1.9l-2.9,7.5h-1.2L21.5,158.9z"/>
	<path d="M27.8,160.8c0-2.1,1.6-3.9,3.9-3.9c2.4,0,4,1.8,4,3.9s-1.6,3.9-4,3.9C29.4,164.7,27.8,162.9,27.8,160.8z M34,160.8
		c0-1.3-0.9-2.4-2.2-2.4c-1.3,0-2.2,1.1-2.2,2.4s0.9,2.4,2.2,2.4C33.1,163.1,34,162.1,34,160.8z"/>
	<path d="M42.2,158.7c-0.3-0.1-0.4-0.1-0.7-0.1c-1.5,0-2.3,0.8-2.3,2.7v3.2h-1.7V157h1.7v1.2c0.3-0.7,1.3-1.3,2.3-1.3
		c0.3,0,0.5,0,0.7,0.1V158.7z"/>
	<path d="M43.5,153.3h1.7v11.2h-1.7V153.3z"/>
	<path d="M53.2,163.5c-0.5,0.8-1.4,1.2-2.3,1.2c-2.3,0-3.8-1.8-3.8-3.9s1.6-3.9,3.8-3.9c0.9,0,1.8,0.4,2.3,1.2v-4.8h1.7v11.2h-1.7
		V163.5z M53.2,160.8c0-1.3-0.9-2.4-2.2-2.4c-1.3,0-2.2,1.1-2.2,2.4s0.9,2.4,2.2,2.4C52.3,163.1,53.2,162.1,53.2,160.8z"/>
</g>
</svg>
