<?xml version="1.0" encoding="utf-8"?>
<!-- Generator: Adobe Illustrator 16.0.3, SVG Export Plug-In . SVG Version: 6.00 Build 0)  -->
<!DOCTYPE svg PUBLIC "-//W3C//DTD SVG 1.1//EN" "http://www.w3.org/Graphics/SVG/1.1/DTD/svg11.dtd">
<svg version="1.1" id="Layer_1" xmlns="http://www.w3.org/2000/svg" xmlns:xlink="http://www.w3.org/1999/xlink" x="0px" y="0px"
	 width="500px" height="500px" viewBox="0 0 500 500" enable-background="new 0 0 500 500" xml:space="preserve">
<title>Linegraph</title>
<text transform="matrix(1 0 0 1 -4.882813e-004 399.2734)" font-family="'ArialMT'" font-size="17.6918">0</text>
<text transform="matrix(1 0 0 1 105.8994 399.2734)" font-family="'ArialMT'" font-size="17.6918">5</text>
<text transform="matrix(1 0 0 1 223.8306 399.2734)" font-family="'ArialMT'" font-size="17.6918">10</text>
<text transform="matrix(1 0 0 1 359.2168 399.2734)" font-family="'ArialMT'" font-size="17.6918">15</text>
<text transform="matrix(1 0 0 1 481.998 399.2734)" font-family="'ArialMT'" font-size="17.6918">20</text>
<line fill="none" stroke="#000000" stroke-width="2" stroke-miterlimit="10" x1="4.334" y1="384.06" x2="490.623" y2="384.06"/>
<line fill="none" x1="4.334" y1="384.06" x2="4.334" y2="377.602"/>
<line fill="none" stroke="#000000" stroke-width="2" stroke-miterlimit="10" x1="110.426" y1="384.06" x2="110.426" y2="377.602"/>
<line fill="none" stroke="#000000" stroke-width="2" stroke-miterlimit="10" x1="231.261" y1="384.06" x2="231.261" y2="377.602"/>
<line fill="none" stroke="#000000" stroke-width="2" stroke-miterlimit="10" x1="366.84" y1="384.06" x2="366.84" y2="377.602"/>
<line fill="none" stroke="#000000" stroke-width="2" stroke-miterlimit="10" x1="490.623" y1="384.06" x2="490.623" y2="377.602"/>
<line fill="none" stroke="#000000" stroke-width="2" stroke-miterlimit="10" x1="4.334" y1="384.797" x2="4.334" y2="95.845"/>
<rect x="5.086" y="122.929" fill="#8820E2" width="327.18" height="21.849"/>
<line fill="none" stroke="#00DC96" stroke-width="2" stroke-miterlimit="10" x1="232.267" y1="145.132" x2="232.267" y2="111.621"/>
<rect x="5.086" y="283.113" fill="#324BED" width="327.18" height="21.717"/>
<line fill="none" stroke="#00DC96" stroke-width="2" stroke-miterlimit="10" x1="232.267" y1="304.845" x2="232.267" y2="271.318"/>
<rect x="5.086" y="335.039" fill="#E53030" width="406.75" height="23.028"/>
<line fill="none" stroke="#E53030" stroke-width="2" stroke-miterlimit="10" x1="492.116" y1="358.082" x2="492.116" y2="324.557"/>
<rect x="5.086" y="228.814" fill="#FFA400" width="406.75" height="22.734"/>
<line fill="none" stroke="#00DC96" stroke-width="2" stroke-miterlimit="10" x1="372.116" y1="251.607" x2="372.116" y2="218.081"/>
<rect x="5.086" y="175.237" fill="#00DC96" width="454.473" height="23.162"/>
<line fill="none" stroke="#E53030" stroke-width="2" stroke-miterlimit="10" x1="489.56" y1="198.34" x2="489.56" y2="164.814"/>
<text transform="matrix(1 0 0 1 481.998 319.2734)" fill="#E53030" font-family="'ArialMT'" font-size="17.6918">20</text>
<text transform="matrix(1 0 0 1 481.998 159.2729)" fill="#E53030" font-family="'ArialMT'" font-size="17.6918">20</text>
<text transform="matrix(1 0 0 1 233.8306 269.2734)" fill="#00DC96" font-family="'ArialMT'" font-size="17.6918">10</text>
<text transform="matrix(1 0 0 1 233.8306 109.2729)" fill="#00DC96" font-family="'ArialMT'" font-size="17.6918">10</text>
<text transform="matrix(1 0 0 1 369.2168 219.2729)" fill="#00DC96" font-family="'ArialMT'" font-size="17.6918">15</text>
</svg>
