<svg id="Layer_1" data-name="Layer 1" xmlns="http://www.w3.org/2000/svg" viewBox="0 0 153.67 153.94"><defs><style>.cls-1{fill:#03dc96;}.cls-2{fill:#ffa400;}.cls-3{fill:#e53130;}.cls-4{fill:#324bed;}</style></defs><title>Donutgraph</title><path class="cls-1" d="M77,33h0V11A76.77,76.77,0,0,0,.35,82.51L22.14,84A55,55,0,0,1,77,33Z" transform="translate(-0.15 -11.04)"/><path class="cls-2" d="M22,88c0-1.34.06-2.66.16-4L.35,82.51A75.18,75.18,0,0,0,25.59,145l14.53-16.14A54.86,54.86,0,0,1,22,88Z" transform="translate(-0.15 -11.04)"/><path d="M77,143a54.79,54.79,0,0,1-36.87-14.19L25.59,145c30,27,74.26,26.64,103.8-.91l-14.83-15.9A54.79,54.79,0,0,1,77,143Z" transform="translate(-0.15 -11.04)"/><path class="cls-3" d="M114.56,128.16l14.83,15.9a75.21,75.21,0,0,0,22.75-40.21l-21.32-4.53A54.91,54.91,0,0,1,114.56,128.16Z" transform="translate(-0.15 -11.04)"/><path class="cls-4" d="M77,11V33a55,55,0,0,1,53.83,66.3l21.32,4.53a68.5,68.5,0,0,0,1.68-16A76.83,76.83,0,0,0,77,11Z" transform="translate(-0.15 -11.04)"/></svg>