<svg id="Layer_1" data-name="Layer 1" xmlns="http://www.w3.org/2000/svg" viewBox="0 0 339.14 209.12"><defs><style>.cls-1{font-size:10.12px;font-family:GTWalsheimMedium, GT Walsheim;letter-spacing:0.05em;}.cls-2,.cls-4,.cls-6{fill:none;}.cls-2,.cls-3{stroke:#000;}.cls-2,.cls-3,.cls-4,.cls-6{stroke-miterlimit:10;}.cls-3{stroke-width:0.5px;}.cls-4{stroke:#03dc96;}.cls-5{fill:#324bed;}.cls-6{stroke:#e53130;}.cls-7{fill:#e53130;}.cls-8{fill:#ffa400;}.cls-9{fill:#03dc96;}</style></defs><title>Linegraph</title><text class="cls-1" transform="translate(0 205.81)">0</text><text class="cls-1" transform="translate(71.83 205.81)">5</text><text class="cls-1" transform="translate(151.82 205.81)">10</text><text class="cls-1" transform="translate(243.65 205.81)">15</text><text class="cls-1" transform="translate(326.93 205.81)">20</text><line class="cls-2" x1="2.94" y1="195.49" x2="332.78" y2="195.49"/><line class="cls-2" x1="2.94" y1="195.49" x2="2.94" y2="191.11"/><line class="cls-2" x1="74.9" y1="195.49" x2="74.9" y2="191.11"/><line class="cls-2" x1="156.86" y1="195.49" x2="156.86" y2="191.11"/><line class="cls-2" x1="248.82" y1="195.49" x2="248.82" y2="191.11"/><line class="cls-2" x1="332.78" y1="195.49" x2="332.78" y2="191.11"/><line class="cls-2" x1="2.94" y1="195.99" x2="2.94"/><rect class="cls-3" x="3.45" y="18.37" width="221.92" height="14.82"/><line class="cls-4" x1="225.37" y1="33.43" x2="225.37" y2="10.7"/><rect class="cls-5" x="3.45" y="127.02" width="221.92" height="14.73"/><line class="cls-6" x1="225.37" y1="141.76" x2="225.37" y2="119.02"/><rect class="cls-7" x="3.45" y="162.24" width="275.89" height="15.62"/><line class="cls-4" x1="279.53" y1="177.87" x2="279.53" y2="155.13"/><rect class="cls-8" x="3.45" y="90.19" width="275.89" height="15.42"/><line class="cls-4" x1="279.53" y1="105.65" x2="279.53" y2="82.91"/><rect class="cls-9" x="3.45" y="53.85" width="308.26" height="15.71"/><line class="cls-6" x1="311.71" y1="69.52" x2="311.71" y2="46.78"/></svg>