<svg id="Layer_1" data-name="Layer 1" xmlns="http://www.w3.org/2000/svg" viewBox="0 0 59.97 59.94"><defs><style>.cls-1{fill:#ffa400;}</style></defs><title>Icon1</title><path class="cls-1" d="M26,24a1,1,0,0,1-.71-1.71l18-18a1,1,0,1,1,1.41,1.41l-18,18A1,1,0,0,1,26,24" transform="translate(0 0)"/><path class="cls-1" d="M22.19,20.36a1,1,0,0,1-.7-1.72L38.3,2.25a1,1,0,1,1,1.4,1.43L22.89,20.07a1,1,0,0,1-.7.28" transform="translate(0 0)"/><path class="cls-1" d="M18.66,16.82A1,1,0,0,1,18,15.12L32.09,1a1,1,0,1,1,1.41,1.41L19.36,16.53a1,1,0,0,1-.71.29" transform="translate(0 0)"/><path class="cls-1" d="M15.12,13.29a1,1,0,0,1-.71-1.71L25,1a1,1,0,0,1,1.41,1.41L15.83,13a1,1,0,0,1-.71.29" transform="translate(0 0)"/><path class="cls-1" d="M44.82,51.89a1,1,0,1,1,1.41,0,1,1,0,0,1-1.41,0" transform="translate(0 0)"/><path class="cls-1" d="M40.58,56.13a1,1,0,1,1,1.41,0,1,1,0,0,1-1.41,0" transform="translate(0 0)"/><path class="cls-1" d="M40.58,47.64a1,1,0,1,1,1.41,0,1,1,0,0,1-1.41,0" transform="translate(0 0)"/><path class="cls-1" d="M36.33,51.89a1,1,0,1,1,1.41,0,1,1,0,0,1-1.41,0" transform="translate(0 0)"/><path class="cls-1" d="M40.58,51.89a1,1,0,1,1,1.41,0,1,1,0,0,1-1.41,0" transform="translate(0 0)"/><path class="cls-1" d="M36.33,43.4a1,1,0,1,1,1.41,0,1,1,0,0,1-1.41,0" transform="translate(0 0)"/><path class="cls-1" d="M32.09,47.64a1,1,0,1,1,1.41,0,1,1,0,0,1-1.41,0" transform="translate(0 0)"/><path class="cls-1" d="M36.33,47.64a1,1,0,1,1,1.41,0,1,1,0,0,1-1.41,0" transform="translate(0 0)"/><path class="cls-1" d="M32.09,56.13a1,1,0,1,1,1.41,0,1,1,0,0,1-1.41,0" transform="translate(0 0)"/><path class="cls-1" d="M27.85,51.89a1,1,0,1,1,1.41,0,1,1,0,0,1-1.41,0" transform="translate(0 0)"/><path class="cls-1" d="M32.09,51.89a1,1,0,1,1,1.41,0,1,1,0,0,1-1.41,0" transform="translate(0 0)"/><path class="cls-1" d="M27.85,47.64a1,1,0,1,1,1.41,0,1,1,0,0,1-1.41,0" transform="translate(0 0)"/><path class="cls-1" d="M23.61,43.4a1,1,0,1,1,1.41,0,1,1,0,0,1-1.41,0" transform="translate(0 0)"/><path class="cls-1" d="M27.85,43.4a1,1,0,1,1,1.41,0,1,1,0,0,1-1.41,0" transform="translate(0 0)"/><path class="cls-1" d="M32.09,43.4a1,1,0,1,1,1.41,0,1,1,0,0,1-1.41,0" transform="translate(0 0)"/><path class="cls-1" d="M32.09,39.16a1,1,0,1,1,1.41,0,1,1,0,0,1-1.41,0" transform="translate(0 0)"/><path class="cls-1" d="M23.61,51.89a1,1,0,1,1,1.41,0,1,1,0,0,1-1.41,0" transform="translate(0 0)"/><path class="cls-1" d="M19.36,47.64a1,1,0,1,1,1.41,0,1,1,0,0,1-1.41,0" transform="translate(0 0)"/><path class="cls-1" d="M23.61,47.64a1,1,0,1,1,1.41,0,1,1,0,0,1-1.41,0" transform="translate(0 0)"/><path class="cls-1" d="M19.36,51.89a1,1,0,1,1,1.41,0,1,1,0,0,1-1.41,0" transform="translate(0 0)"/><path class="cls-1" d="M27.85,56.13a1,1,0,1,1,1.41,0,1,1,0,0,1-1.41,0" transform="translate(0 0)"/><path class="cls-1" d="M23.61,56.13a1,1,0,1,1,1.41,0,1,1,0,0,1-1.41,0" transform="translate(0 0)"/><path class="cls-1" d="M19.36,43.4a1,1,0,1,1,1.41,0,1,1,0,0,1-1.41,0" transform="translate(0 0)"/><path class="cls-1" d="M19.36,39.16a1,1,0,1,1,1.41,0,1,1,0,0,1-1.41,0" transform="translate(0 0)"/><path class="cls-1" d="M15.12,34.92a1,1,0,1,1,1.41,0,1,1,0,0,1-1.41,0" transform="translate(0 0)"/><path class="cls-1" d="M19.36,30.67a1,1,0,1,1,1.41,0,1,1,0,0,1-1.41,0" transform="translate(0 0)"/><path class="cls-1" d="M15.12,43.4a1,1,0,1,1,1.41,0,1,1,0,0,1-1.41,0" transform="translate(0 0)"/><path class="cls-1" d="M10.88,39.16a1,1,0,1,1,1.41,0,1,1,0,0,1-1.41,0" transform="translate(0 0)"/><path class="cls-1" d="M6.64,43.4a1,1,0,1,1,1.41,0,1,1,0,0,1-1.41,0" transform="translate(0 0)"/><path class="cls-1" d="M10.88,47.64a1,1,0,1,1,1.41,0,1,1,0,0,1-1.41,0" transform="translate(0 0)"/><path class="cls-1" d="M15.12,51.89a1,1,0,1,1,1.41,0,1,1,0,0,1-1.41,0" transform="translate(0 0)"/><path class="cls-1" d="M10.88,51.89a1,1,0,1,1,1.41,0,1,1,0,0,1-1.41,0" transform="translate(0 0)"/><path class="cls-1" d="M6.64,47.64a1,1,0,1,1,1.41,0,1,1,0,0,1-1.41,0" transform="translate(0 0)"/><path class="cls-1" d="M15.12,39.16a1,1,0,1,1,1.41,0,1,1,0,0,1-1.41,0" transform="translate(0 0)"/><path class="cls-1" d="M27.85,34.92a1,1,0,1,1,1.41,0,1,1,0,0,1-1.41,0" transform="translate(0 0)"/><path class="cls-1" d="M23.61,34.92a1,1,0,1,1,1.41,0,1,1,0,0,1-1.41,0" transform="translate(0 0)"/><path class="cls-1" d="M27.85,39.16a1,1,0,1,1,1.41,0,1,1,0,0,1-1.41,0" transform="translate(0 0)"/><path class="cls-1" d="M23.61,30.67a1,1,0,1,1,1.41,0,1,1,0,0,1-1.41,0" transform="translate(0 0)"/><path class="cls-1" d="M10.88,43.4a1,1,0,1,1,1.41,0,1,1,0,0,1-1.41,0" transform="translate(0 0)"/><path class="cls-1" d="M15.12,47.64a1,1,0,1,1,1.41,0,1,1,0,0,1-1.41,0" transform="translate(0 0)"/><path class="cls-1" d="M10.88,34.92a1,1,0,1,1,1.41,0,1,1,0,0,1-1.41,0" transform="translate(0 0)"/><path class="cls-1" d="M10.88,30.67a1,1,0,1,1,1.41,0,1,1,0,0,1-1.41,0" transform="translate(0 0)"/><path class="cls-1" d="M6.64,26.43a1,1,0,1,1,1.41,0,1,1,0,0,1-1.41,0" transform="translate(0 0)"/><path class="cls-1" d="M6.64,34.92a1,1,0,1,1,1.41,0,1,1,0,0,1-1.41,0" transform="translate(0 0)"/><path class="cls-1" d="M2.39,39.16a1,1,0,1,1,1.41,0,1,1,0,0,1-1.41,0" transform="translate(0 0)"/><path class="cls-1" d="M2.39,30.67a1,1,0,1,1,1.41,0,1,1,0,0,1-1.41,0" transform="translate(0 0)"/><path class="cls-1" d="M6.64,30.67a1,1,0,1,1,1.41,0,1,1,0,0,1-1.41,0" transform="translate(0 0)"/><path class="cls-1" d="M10.88,26.43a1,1,0,1,1,1.41,0,1,1,0,0,1-1.41,0" transform="translate(0 0)"/><path class="cls-1" d="M15.12,30.67a1,1,0,1,1,1.41,0,1,1,0,0,1-1.41,0" transform="translate(0 0)"/><path class="cls-1" d="M19.36,34.92a1,1,0,1,1,1.41,0,1,1,0,0,1-1.41,0" transform="translate(0 0)"/><path class="cls-1" d="M6.64,17.94a1,1,0,1,1,1.41,0,1,1,0,0,1-1.41,0" transform="translate(0 0)"/><path class="cls-1" d="M19.36,26.43a1,1,0,1,1,1.41,0,1,1,0,0,1-1.41,0" transform="translate(0 0)"/><path class="cls-1" d="M10.88,22.19a1,1,0,1,1,1.41,0,1,1,0,0,1-1.41,0" transform="translate(0 0)"/><path class="cls-1" d="M15.12,26.43a1,1,0,1,1,1.41,0,1,1,0,0,1-1.41,0" transform="translate(0 0)"/><path class="cls-1" d="M10.88,17.94a1,1,0,1,1,1.41,0,1,1,0,0,1-1.41,0" transform="translate(0 0)"/><path class="cls-1" d="M15.12,22.19a1,1,0,1,1,1.41,0,1,1,0,0,1-1.41,0" transform="translate(0 0)"/><path class="cls-1" d="M2.39,26.43a1,1,0,1,1,1.41,0,1,1,0,0,1-1.41,0" transform="translate(0 0)"/><path class="cls-1" d="M6.64,22.19a1,1,0,1,1,1.41,0,1,1,0,0,1-1.41,0" transform="translate(0 0)"/><path class="cls-1" d="M23.61,39.16a1,1,0,1,1,1.41,0,1,1,0,0,1-1.41,0" transform="translate(0 0)"/><path class="cls-1" d="M2.39,34.92a1,1,0,1,1,1.41,0,1,1,0,0,1-1.41,0" transform="translate(0 0)"/><path class="cls-1" d="M6.64,39.16a1,1,0,1,1,1.41,0,1,1,0,0,1-1.41,0" transform="translate(0 0)"/><path class="cls-1" d="M19.36,56.13a1,1,0,1,1,1.41,0,1,1,0,0,1-1.41,0" transform="translate(0 0)"/><path class="cls-1" d="M36.33,56.13a1,1,0,1,1,1.41,0,1,1,0,0,1-1.41,0" transform="translate(0 0)"/><path class="cls-1" d="M8.17,12.41A28,28,0,0,0,47.53,51.77ZM30,59.94A30,30,0,0,1,7.35,10.27a1,1,0,0,1,.72-.34,1,1,0,0,1,.74.29l40.9,40.9a1,1,0,0,1,0,1.46A29.86,29.86,0,0,1,30,59.94Z" transform="translate(0 0)"/><path class="cls-1" d="M12.41,8.16,30,25.72,47.53,8.16a28.09,28.09,0,0,0-35.12,0M30,28.14a1,1,0,0,1-.71-.29l-19-19a1,1,0,0,1,.05-1.46,30.08,30.08,0,0,1,39.39,0,1,1,0,0,1,0,1.46l-19,19a1,1,0,0,1-.71.29" transform="translate(0 0)"/><path class="cls-1" d="M34.21,30,51.83,47.58a28.13,28.13,0,0,0-.05-35.17ZM51.89,50.06a1,1,0,0,1-.71-.29L32.09,30.67a1,1,0,0,1,0-1.41l19-19a1,1,0,0,1,.74-.29,1,1,0,0,1,.72.34,30.12,30.12,0,0,1,.06,39.44,1,1,0,0,1-.72.34Z" transform="translate(0 0)"/></svg>