<svg id="Layer_1" data-name="Layer 1" xmlns="http://www.w3.org/2000/svg" viewBox="0 0 46 46"><defs><style>.cls-1{fill:#ffa400;}</style></defs><title>Icon2</title><polygon class="cls-1" points="46 46 0 46 0 0 2 0 2 44 46 44 46 46"/><path class="cls-1" d="M28,37.1H4V28.7H28Zm-22-2H26V30.7H6Z"/><path class="cls-1" d="M36,37.1H30V28.7h6Zm-4-2h2V30.7H32Z"/><path class="cls-1" d="M36,24.3H4V15.9H36Zm-30-2H34V17.9H6Z"/><path class="cls-1" d="M44,24.3H38V15.9h6Zm-4-2h2V17.9H40Z"/><path class="cls-1" d="M23,11.4H4V3H23ZM6,9.4H21V5H6Z"/><path class="cls-1" d="M31,11.4H25V3h6Zm-4-2h2V5H27Z"/><rect class="cls-1" x="6.4" y="41" width="2" height="4"/><rect class="cls-1" x="12.9" y="41" width="2" height="4"/><rect class="cls-1" x="19.3" y="41" width="2" height="4"/><rect class="cls-1" x="25.7" y="41" width="2" height="4"/><rect class="cls-1" x="32.1" y="41" width="2" height="4"/><rect class="cls-1" x="38.6" y="41" width="2" height="4"/></svg>