<svg id="Layer_1" data-name="Layer 1" xmlns="http://www.w3.org/2000/svg" viewBox="0 0 59.59 59.75"><defs><style>.cls-1{fill:#ffa400;}</style></defs><title>Icon3</title><path class="cls-1" d="M19,2A17,17,0,1,0,36,19,17,17,0,0,0,19,2m0,36A19,19,0,1,1,38,19,19,19,0,0,1,19,38"/><path class="cls-1" d="M38.08,42.33,52.47,56.88a3,3,0,0,0,4.24-4.25L42.32,38.09ZM54.59,59.75a5,5,0,0,1-3.53-1.46l-15.79-16,7.07-7.07,15.8,16a5,5,0,0,1-3.54,8.53Z"/><path class="cls-1" d="M31.7,33.12l6.38,6.39,1.41-1.41L33.12,31.7a19,19,0,0,1-1.41,1.41Zm6.38,9.21L28.73,33l.87-.7a17,17,0,0,0,2.67-2.67l.7-.87,9.35,9.36Z"/><path class="cls-1" d="M11,17a2,2,0,1,0,2,2,2,2,0,0,0-2-2m0,6a4,4,0,1,1,4-4,4,4,0,0,1-4,4"/><path class="cls-1" d="M25,9a2,2,0,1,0,2,2,2,2,0,0,0-2-2m0,6a4,4,0,1,1,4-4,4,4,0,0,1-4,4"/><path class="cls-1" d="M25,24a2,2,0,1,0,2,2,2,2,0,0,0-2-2m0,6a4,4,0,1,1,4-4,4,4,0,0,1-4,4"/><path class="cls-1" d="M21.55,25.89l-8-4,.89-1.79,8,4Z"/><path class="cls-1" d="M13.49,17.87l-1-1.75,9-5,1,1.75Z"/><path class="cls-1" d="M42.21,48.21l-1.41-1.41,5.5-5.5,1.41,1.41Z"/><path class="cls-1" d="M48.21,54.21l-1.41-1.41,5.5-5.5,1.41,1.41Z"/></svg>